 <svg  version="1.0" xmlns="http://www.w3.org/2000/svg"  width="300.000000pt" height="300.000000pt" viewBox="0 0 300.000000 300.000000"  preserveAspectRatio="xMidYMid meet">  <g transform="translate(0.000000,300.000000) scale(0.100000,-0.100000)" fill="#ffffff" stroke="none"> <path d="M1534 2555 c6 -51 24 -404 51 -1000 8 -187 17 -374 19 -415 3 -41 5 -98 5 -125 l1 -51 163 27 c190 32 192 32 278 53 61 14 189 54 198 62 2 2 -102 214 -232 471 -250 498 -382 774 -443 925 -20 51 -39 95 -41 98 -3 3 -2 -17 1 -45z m281 -647 c118 -238 253 -507 300 -598 47 -90 84 -171 83 -180 -4 -20 -82 -44 -258 -80 -196 -39 -278 -49 -289 -36 -16 19 -20 73 -26 326 -3 135 -10 328 -15 430 -16 324 -23 570 -17 570 4 0 103 -195 222 -432z"/> <path d="M1218 2245 c-22 -386 -223 -816 -530 -1131 l-98 -101 72 -12 c268 -46 369 -56 573 -56 161 0 254 5 260 14 2 4 -8 44 -21 90 -43 149 -137 631 -204 1051 -43 270 -45 276 -52 145z m35 -267 c5 -41 23 -151 32 -193 2 -11 11 -58 20 -105 42 -215 67 -337 101 -485 49 -210 49 -207 -1 -218 -104 -23 -681 21 -723 56 -10 8 -4 20 31 56 232 241 393 520 492 854 15 48 30 85 34 82 5 -2 11 -24 14 -47z"/> <path d="M2515 1079 c-223 -124 -574 -237 -892 -286 -158 -24 -577 -24 -730 0 -138 22 -286 58 -375 90 -38 13 -68 21 -68 18 0 -15 178 -180 251 -233 268 -197 540 -281 829 -255 316 28 642 221 948 561 149 165 150 169 37 105z m-104 -118 c-15 -28 -184 -184 -265 -245 -150 -113 -279 -179 -452 -233 -83 -25 -101 -27 -269 -27 -167 0 -186 2 -269 28 -133 40 -225 81 -323 143 -93 58 -223 158 -223 172 0 4 60 -5 133 -20 182 -37 308 -49 515 -49 270 0 498 32 752 105 119 34 270 88 352 125 54 25 61 25 49 1z"/> </g> </svg> 